<?xml version="1.0" encoding="UTF-8" standalone="no"?>
<!-- Created with Inkscape (http://www.inkscape.org/) -->

<svg
   xmlns:dc="http://purl.org/dc/elements/1.1/"
   xmlns:cc="http://creativecommons.org/ns#"
   xmlns:rdf="http://www.w3.org/1999/02/22-rdf-syntax-ns#"
   xmlns:svg="http://www.w3.org/2000/svg"
   xmlns="http://www.w3.org/2000/svg"
   xmlns:sodipodi="http://sodipodi.sourceforge.net/DTD/sodipodi-0.dtd"
   xmlns:inkscape="http://www.inkscape.org/namespaces/inkscape"
   width="5.9646611mm"
   height="4.7401013mm"
   viewBox="0 0 5.9646611 4.7401013"
   version="1.1"
   id="svg11140"
   inkscape:version="0.92.3 (unknown)"
   sodipodi:docname="blueTank1.svg">
  <defs
     id="defs11134" />
  <sodipodi:namedview
     id="base"
     pagecolor="#ffffff"
     bordercolor="#666666"
     borderopacity="1.0"
     inkscape:pageopacity="0.0"
     inkscape:pageshadow="2"
     inkscape:zoom="11.2"
     inkscape:cx="22.902828"
     inkscape:cy="3.2433869"
     inkscape:document-units="mm"
     inkscape:current-layer="layer1"
     showgrid="false"
     inkscape:window-width="1299"
     inkscape:window-height="713"
     inkscape:window-x="67"
     inkscape:window-y="27"
     inkscape:window-maximized="1" />
  <metadata
     id="metadata11137">
    <rdf:RDF>
      <cc:Work
         rdf:about="">
        <dc:format>image/svg+xml</dc:format>
        <dc:type
           rdf:resource="http://purl.org/dc/dcmitype/StillImage" />
        <dc:title></dc:title>
      </cc:Work>
    </rdf:RDF>
  </metadata>
  <g
     inkscape:label="Layer 1"
     inkscape:groupmode="layer"
     id="layer1"
     transform="translate(-16.672431,-144.95138)">
    <g
       id="g10559"
       transform="matrix(-0.26458333,0,0,0.26458333,28.758972,134.04901)">
      <g
         transform="scale(0.26458333)"
         id="use10557">
        <path
           style="fill:#809a9c;stroke:none"
           inkscape:connector-curvature="0"
           id="path11197"
           d="m 134.65,175.15 19.7,-5.25 -2.05,-7.75 -19.7,5.25 z" />
        <path
           style="fill:#8eabad;stroke:none"
           inkscape:connector-curvature="0"
           id="path11199"
           d="m 169.65,156.05 q -0.75,-0.45 -1.55,-0.25 l -13.55,3.65 q -0.8,0.2 -1.2,0.95 l -1.05,1.75 2.05,7.75 1.8,1 q 0.7,0.35 1.5,0.15 l 13.55,-3.65 q 0.8,-0.2 1.25,-0.85 0.35,-0.75 0.1,-1.55 l -2.05,-7.75 q -0.2,-0.8 -0.85,-1.2 z" />
      </g>
    </g>
    <g
       id="g10563"
       transform="matrix(-0.26458333,0,0,0.26458333,28.758972,134.04901)">
      <g
         transform="scale(0.26458333)"
         id="use10561">
        <path
           style="fill:#34495e;stroke:none"
           inkscape:connector-curvature="0"
           id="path11203"
           d="m 117.25,165.8 v 15 h 27.45 q 0.85,0 1.45,-0.55 0.55,-0.6 0.55,-1.35 v -3.25 q -0.0109,-0.56563 -0.35,-1.05 -0.35,-0.5 -0.9,-0.75 l -19.55,-7.9 q -0.35,-0.15 -0.75,-0.15 h -7.9 m -7.9,0 h -6.9 q -0.85,0 -1.4,0.6 -0.58125,0.53281 -0.6,1.1 v 11.4 q 0,0.75 0.6,1.35 0.55,0.55 1.4,0.55 h 6.9 z" />
        <path
           style="fill:#466383;stroke:none"
           inkscape:connector-curvature="0"
           id="path11205"
           d="m 102.45,165.8 h 6.9 v 15 h 7.9 v -15 h 7.9 q 0.4,0 0.75,0.15 l 19.55,7.9 q 0.55,0.25 0.9,0.75 0.33906,0.48437 0.35,1.05 v -1.95 q 0,-0.6 -0.35,-1.1 -0.35,-0.5 -0.9,-0.75 l -19.55,-7.9 q -0.35,-0.15 -0.75,-0.15 h -22.7 q -0.85,0 -1.4,0.6 -0.6,0.55 -0.6,1.4 v 1.7 q 0.0187,-0.56719 0.6,-1.1 0.55,-0.6 1.4,-0.6 z" />
      </g>
    </g>
    <g
       id="g10567"
       transform="matrix(-0.26458333,0,0,0.26458333,28.758972,134.04901)">
      <g
         transform="scale(0.26458333)"
         id="use10565">
        <path
           style="fill:#677c7e;stroke:none"
           inkscape:connector-curvature="0"
           id="path11209"
           d="m 153.3,189.25 h -52.6 q -9.85,0 -9.85,9.8 v 14.55 q 0,9.85 9.85,9.85 h 52.6 q 9.9,0 9.9,-9.85 v -14.55 q 0,-9.8 -9.9,-9.8 m -52.6,5.8 h 52.6 q 4.1,0 4.1,4 v 14.55 q 0,4.05 -4.1,4.05 h -52.6 q -4.05,0 -4.05,-4.05 v -14.55 q 0,-4 4.05,-4 z" />
        <path
           style="fill:#526364;stroke:none"
           inkscape:connector-curvature="0"
           id="path11211"
           d="m 153.3,195.05 h -52.6 q -4.05,0 -4.05,4 v 14.55 q 0,4.05 4.05,4.05 h 52.6 q 4.1,0 4.1,-4.05 v -14.55 q 0,-4 -4.1,-4 z" />
      </g>
    </g>
    <g
       id="g10571"
       transform="matrix(-0.26458333,0,0,0.26458333,28.758972,134.04901)">
      <g
         transform="scale(0.26458333)"
         id="use10569">
        <path
           style="fill:#8eabad;stroke:none"
           inkscape:connector-curvature="0"
           id="path11215"
           d="m 116.4,207.05 q 0,-3.65 -2.55,-6.15 -2.5,-2.55 -6.15,-2.55 -3.6,0 -6.2,2.55 -2.5,2.5 -2.5,6.15 0,3.55 2.5,6.15 2.6,2.55 6.2,2.55 3.65,0 6.15,-2.55 2.55,-2.6 2.55,-6.15 m -5,-3.7 q 1.5,1.5 1.5,3.7 0,2.15 -1.5,3.7 -1.55,1.5 -3.75,1.5 -2.1,0 -3.65,-1.5 -1.55,-1.55 -1.55,-3.7 0,-2.2 1.55,-3.7 1.55,-1.55 3.65,-1.55 2.2,0 3.75,1.55 m 24.35,3.7 q 0,-3.65 -2.55,-6.15 -2.55,-2.55 -6.15,-2.55 -3.65,0 -6.2,2.55 -2.5,2.5 -2.5,6.15 0,3.55 2.5,6.15 2.55,2.55 6.2,2.55 3.6,0 6.15,-2.55 2.55,-2.6 2.55,-6.15 M 127,201.8 q 2.15,0 3.7,1.55 1.5,1.5 1.5,3.7 0,2.15 -1.5,3.7 -1.55,1.5 -3.7,1.5 -2.15,0 -3.7,-1.5 -1.55,-1.55 -1.55,-3.7 0,-2.2 1.55,-3.7 1.55,-1.55 3.7,-1.55 m 28.05,5.25 q 0,-3.65 -2.55,-6.15 -2.5,-2.55 -6.15,-2.55 -3.6,0 -6.15,2.55 -2.55,2.5 -2.55,6.15 0,3.55 2.55,6.15 2.55,2.55 6.15,2.55 3.65,0 6.15,-2.55 2.55,-2.6 2.55,-6.15 m -12.4,-3.7 q 1.55,-1.55 3.65,-1.55 2.2,0 3.75,1.55 1.5,1.5 1.5,3.7 0,2.15 -1.5,3.7 -1.55,1.5 -3.75,1.5 -2.1,0 -3.65,-1.5 -1.55,-1.55 -1.55,-3.7 0,-2.2 1.55,-3.7 z" />
        <path
           style="fill:#809a9c;stroke:none"
           inkscape:connector-curvature="0"
           id="path11217"
           d="m 112.9,207.05 q 0,-2.2 -1.5,-3.7 -1.55,-1.55 -3.75,-1.55 -2.1,0 -3.65,1.55 -1.55,1.5 -1.55,3.7 0,2.15 1.55,3.7 1.55,1.5 3.65,1.5 2.2,0 3.75,-1.5 1.5,-1.55 1.5,-3.7 m -6.75,1.5 q -0.55,-0.65 -0.55,-1.5 0,-0.9 0.55,-1.5 0.65,-0.6 1.5,-0.6 0.9,0 1.5,0.6 0.6,0.6 0.6,1.5 0,0.85 -0.6,1.5 -0.6,0.6 -1.5,0.6 -0.85,0 -1.5,-0.6 m 24.55,-5.2 q -1.55,-1.55 -3.7,-1.55 -2.15,0 -3.7,1.55 -1.55,1.5 -1.55,3.7 0,2.15 1.55,3.7 1.55,1.5 3.7,1.5 2.15,0 3.7,-1.5 1.5,-1.55 1.5,-3.7 0,-2.2 -1.5,-3.7 m -5.8,3.7 q 0,-0.9 0.6,-1.5 0.6,-0.6 1.5,-0.6 0.85,0 1.5,0.6 0.55,0.6 0.55,1.5 0,0.85 -0.55,1.5 -0.65,0.6 -1.5,0.6 -0.9,0 -1.5,-0.6 -0.6,-0.65 -0.6,-1.5 m 21.4,-5.25 q -2.1,0 -3.65,1.55 -1.55,1.5 -1.55,3.7 0,2.15 1.55,3.7 1.55,1.5 3.65,1.5 2.2,0 3.75,-1.5 1.5,-1.55 1.5,-3.7 0,-2.2 -1.5,-3.7 -1.55,-1.55 -3.75,-1.55 m 0,7.35 q -0.85,0 -1.45,-0.6 -0.6,-0.65 -0.6,-1.5 0,-0.9 0.6,-1.5 0.6,-0.6 1.45,-0.6 0.9,0 1.5,0.6 0.6,0.6 0.6,1.5 0,0.85 -0.6,1.5 -0.6,0.6 -1.5,0.6 z" />
        <path
           style="fill:#b2d6d9;stroke:none"
           inkscape:connector-curvature="0"
           id="path11219"
           d="m 105.6,207.05 q 0,0.85 0.55,1.5 0.65,0.6 1.5,0.6 0.9,0 1.5,-0.6 0.6,-0.65 0.6,-1.5 0,-0.9 -0.6,-1.5 -0.6,-0.6 -1.5,-0.6 -0.85,0 -1.5,0.6 -0.55,0.6 -0.55,1.5 m 19.9,-1.5 q -0.6,0.6 -0.6,1.5 0,0.85 0.6,1.5 0.6,0.6 1.5,0.6 0.85,0 1.5,-0.6 0.55,-0.65 0.55,-1.5 0,-0.9 -0.55,-1.5 -0.65,-0.6 -1.5,-0.6 -0.9,0 -1.5,0.6 m 19.35,3 q 0.6,0.6 1.45,0.6 0.9,0 1.5,-0.6 0.6,-0.65 0.6,-1.5 0,-0.9 -0.6,-1.5 -0.6,-0.6 -1.5,-0.6 -0.85,0 -1.45,0.6 -0.6,0.6 -0.6,1.5 0,0.85 0.6,1.5 z" />
      </g>
    </g>
    <g
       id="g10575"
       transform="matrix(-0.26458333,0,0,0.26458333,28.758972,134.04901)">
      <g
         transform="scale(0.26458333)"
         id="use10573">
        <path
           style="fill:#000000;fill-opacity:0.10196078;stroke:none"
           inkscape:connector-curvature="0"
           id="path11223"
           d="m 90.95,207.85 v 3.35 h 72.35 v -3.35 h -1.15 z" />
        <path
           style="fill:#34495e;stroke:none"
           inkscape:connector-curvature="0"
           id="path11225"
           d="m 99,179.3 q -0.45,0.2 -0.75,0.65 l -9.8,14.35 h 76.6 l -3.6,-14.1 q -0.25,-0.55 -0.75,-0.85 -0.5,-0.3 -1.05,-0.3 H 99.9 q -0.5,0 -0.9,0.25 m 2.6,11.4 v -3.75 q 0,-2 2,-2 h 10.65 q 2,0 2,2 v 3.75 q 0,2 -2,2 H 103.6 q -2,0 -2,-2 m 49.1,0.15 q -0.7,0 -1.2,-0.5 -0.5,-0.5 -0.5,-1.2 0,-0.7 0.5,-1.2 0.5,-0.5 1.2,-0.5 0.7,0 1.2,0.5 0.5,0.5 0.5,1.2 0,0.7 -0.5,1.2 -0.5,0.5 -1.2,0.5 m -5.6,-3.25 q 0.3,0.1 0.55,0.35 0.5,0.5 0.5,1.2 0,0.7 -0.5,1.2 -0.25,0.25 -0.55,0.4 -0.3,0.1 -0.65,0.1 -0.7,0 -1.2,-0.5 -0.5,-0.5 -0.5,-1.2 0,-0.7 0.5,-1.2 0.5,-0.5 1.2,-0.5 0.35,0 0.65,0.15 m 12.05,0.35 q 0.5,0.5 0.5,1.2 0,0.7 -0.5,1.2 -0.5,0.5 -1.2,0.5 -0.7,0 -1.2,-0.5 -0.5,-0.5 -0.5,-1.2 0,-0.7 0.5,-1.2 0.5,-0.5 1.2,-0.5 0.7,0 1.2,0.5 m -50.35,2.2 q 0.55,-0.5 0.55,-1.25 0,-0.75 -0.55,-1.3 -0.5,-0.5 -1.25,-0.5 -0.75,0 -1.3,0.5 -0.5,0.55 -0.5,1.3 0,0.75 0.5,1.25 0.55,0.55 1.3,0.55 0.75,0 1.25,-0.55 z" />
        <path
           style="fill:#2e4154;stroke:none"
           inkscape:connector-curvature="0"
           id="path11227"
           d="m 157.65,189.15 q 0,-0.7 -0.5,-1.2 -0.5,-0.5 -1.2,-0.5 -0.7,0 -1.2,0.5 -0.5,0.5 -0.5,1.2 0,0.7 0.5,1.2 0.5,0.5 1.2,0.5 0.7,0 1.2,-0.5 0.5,-0.5 0.5,-1.2 m -12,-1.2 q -0.25,-0.25 -0.55,-0.35 -0.3,-0.15 -0.65,-0.15 -0.7,0 -1.2,0.5 -0.5,0.5 -0.5,1.2 0,0.7 0.5,1.2 0.5,0.5 1.2,0.5 0.35,0 0.65,-0.1 0.3,-0.15 0.55,-0.4 0.5,-0.5 0.5,-1.2 0,-0.7 -0.5,-1.2 m 3.85,2.4 q 0.5,0.5 1.2,0.5 0.7,0 1.2,-0.5 0.5,-0.5 0.5,-1.2 0,-0.7 -0.5,-1.2 -0.5,-0.5 -1.2,-0.5 -0.7,0 -1.2,0.5 -0.5,0.5 -0.5,1.2 0,0.7 0.5,1.2 m 20.15,6.7 q 0.2,-0.35 0.3,-0.75 h -82.5 v 9.55 q 0,0.85 0.6,1.45 0.55,0.55 1.4,0.55 h 1.5 71.2 q 0.20703,-0.004 0.65,-0.25 0.45,-0.25 0.7,-0.7 z" />
        <path
           style="fill:#2b3d4f;stroke:none"
           inkscape:connector-curvature="0"
           id="path11229"
           d="m 101.6,186.95 v 3.75 q 0,2 2,2 h 10.65 q 2,0 2,-2 v -3.75 q 0,-2 -2,-2 H 103.6 q -2,0 -2,2 m 5.75,1.95 q 0,0.75 -0.55,1.25 -0.5,0.55 -1.25,0.55 -0.75,0 -1.3,-0.55 -0.5,-0.5 -0.5,-1.25 0,-0.75 0.5,-1.3 0.55,-0.5 1.3,-0.5 0.75,0 1.25,0.5 0.55,0.55 0.55,1.3 z" />
        <path
           style="fill:#466383;stroke:none"
           inkscape:connector-curvature="0"
           id="path11231"
           d="m 165.05,194.3 h 4.3 l -7.9,-16.1 q -0.25,-0.55 -0.75,-0.85 -0.5,-0.3 -1.05,-0.3 H 99.9 q -0.5,0 -0.9,0.25 -0.45,0.2 -0.75,0.65 L 87.8,193.2 q -0.35,0.5 -0.35,1.1 h 1 l 9.8,-14.35 q 0.3,-0.45 0.75,-0.65 0.4,-0.25 0.9,-0.25 h 59.75 q 0.55,0 1.05,0.3 0.5,0.3 0.75,0.85 z" />
        <path
           style="fill:#3b536d;stroke:none"
           inkscape:connector-curvature="0"
           id="path11233"
           d="m 169.75,195.15 -0.4,-0.85 h -4.3 -76.6 -1 v 2 h 82.5 q 0,-0.1 0,-0.2 0.05,-0.5 -0.2,-0.95 z" />
      </g>
    </g>
    <g
       id="g10579"
       transform="matrix(-0.26458333,0,0,0.26458333,28.758972,134.04901)">
      <g
         transform="scale(0.26458333)"
         id="use10577">
        <path
           style="fill:#ffffff;stroke:none"
           inkscape:connector-curvature="0"
           id="path11237"
           d="m 135.65,184 q -0.2,-0.35 -0.5,-0.55 l -4.1,-2.55 q -0.4,-0.2 -0.8,-0.2 -0.45,0 -0.8,0.2 l -4.05,2.55 q -0.35,0.2 -0.55,0.55 -0.15,0.35 -0.15,0.7 v 4.05 q 0,0.35 0.15,0.7 0.2,0.35 0.55,0.55 l 4.05,2.55 q 0.35,0.25 0.8,0.25 0.4,0 0.8,-0.25 l 4.1,-2.55 q 0.3,-0.2 0.5,-0.55 0.15,-0.35 0.15,-0.7 v -4.05 q 0,-0.35 -0.15,-0.7 z" />
      </g>
    </g>
    <g
       id="g10583"
       transform="matrix(-0.26458333,0,0,0.26458333,28.758972,134.04901)">
      <path
         inkscape:connector-curvature="0"
         d="m 35.136667,50.085625 -0.687917,-0.674688 -0.648229,0.64823 m 0,-1.296459 0.648229,0.648229 0.687917,-0.674687"
         stroke-miterlimit="3"
         id="use10581"
         style="fill:none;stroke:#2b3d4f;stroke-width:0.52916664;stroke-linecap:butt;stroke-linejoin:miter;stroke-miterlimit:3" />
    </g>
  </g>
</svg>
