<?xml version="1.0" encoding="UTF-8" standalone="no"?>
<!-- Created with Inkscape (http://www.inkscape.org/) -->

<svg
   xmlns:dc="http://purl.org/dc/elements/1.1/"
   xmlns:cc="http://creativecommons.org/ns#"
   xmlns:rdf="http://www.w3.org/1999/02/22-rdf-syntax-ns#"
   xmlns:svg="http://www.w3.org/2000/svg"
   xmlns="http://www.w3.org/2000/svg"
   xmlns:sodipodi="http://sodipodi.sourceforge.net/DTD/sodipodi-0.dtd"
   xmlns:inkscape="http://www.inkscape.org/namespaces/inkscape"
   width="5.9646611mm"
   height="4.7401013mm"
   viewBox="0 0 5.9646611 4.7401013"
   version="1.1"
   id="svg10963"
   inkscape:version="0.92.3 (unknown)"
   sodipodi:docname="greenTank1.svg">
  <defs
     id="defs10957" />
  <sodipodi:namedview
     id="base"
     pagecolor="#ffffff"
     bordercolor="#666666"
     borderopacity="1.0"
     inkscape:pageopacity="0.0"
     inkscape:pageshadow="2"
     inkscape:zoom="18.8"
     inkscape:cx="14.989939"
     inkscape:cy="6.7014248"
     inkscape:document-units="mm"
     inkscape:current-layer="layer1"
     showgrid="false"
     inkscape:window-width="1299"
     inkscape:window-height="713"
     inkscape:window-x="67"
     inkscape:window-y="27"
     inkscape:window-maximized="1" />
  <metadata
     id="metadata10960">
    <rdf:RDF>
      <cc:Work
         rdf:about="">
        <dc:format>image/svg+xml</dc:format>
        <dc:type
           rdf:resource="http://purl.org/dc/dcmitype/StillImage" />
        <dc:title></dc:title>
      </cc:Work>
    </rdf:RDF>
  </metadata>
  <g
     inkscape:label="Layer 1"
     inkscape:groupmode="layer"
     id="layer1"
     transform="translate(-191.29743,-222.05852)">
    <g
       id="g10587"
       transform="matrix(0.26458333,0,0,0.26458333,185.17555,217.45654)">
      <g
         transform="scale(0.26458333)"
         id="use10585">
        <path
           style="fill:#809a9c;stroke:none"
           inkscape:connector-curvature="0"
           id="path11009"
           d="m 134.65,85.15 19.7,-5.25 -2.05,-7.75 -19.7,5.25 z" />
        <path
           style="fill:#8eabad;stroke:none"
           inkscape:connector-curvature="0"
           id="path11011"
           d="M 169.65,66.05 Q 168.9,65.6 168.1,65.8 l -13.55,3.65 q -0.8,0.2 -1.2,0.95 l -1.05,1.75 2.05,7.75 1.8,1 q 0.7,0.35 1.5,0.15 L 171.2,77.4 q 0.8,-0.2 1.25,-0.85 0.35,-0.75 0.1,-1.55 l -2.05,-7.75 q -0.2,-0.8 -0.85,-1.2 z" />
      </g>
    </g>
    <g
       id="g10591"
       transform="matrix(0.26458333,0,0,0.26458333,185.17555,217.45654)">
      <g
         transform="scale(0.26458333)"
         id="use10589">
        <path
           style="fill:#27af61;stroke:none"
           inkscape:connector-curvature="0"
           id="path11015"
           d="m 117.25,75.8 v 15 h 27.45 q 0.85,0 1.45,-0.55 0.55,-0.6 0.55,-1.35 v -3.25 q -0.0109,-0.565625 -0.35,-1.05 -0.35,-0.5 -0.9,-0.75 l -19.55,-7.9 q -0.35,-0.15 -0.75,-0.15 h -7.9 m -16.8,13.1 q 0,0.75 0.6,1.35 0.55,0.55 1.4,0.55 h 6.9 v -15 h -6.9 q -0.85,0 -1.4,0.6 -0.58125,0.532812 -0.6,1.1 z" />
        <path
           style="fill:#2ecc71;stroke:none"
           inkscape:connector-curvature="0"
           id="path11017"
           d="m 100.45,75.8 v 1.7 q 0.0187,-0.567188 0.6,-1.1 0.55,-0.6 1.4,-0.6 h 6.9 v 15 h 7.9 v -15 h 7.9 q 0.4,0 0.75,0.15 l 19.55,7.9 q 0.55,0.25 0.9,0.75 0.33906,0.484375 0.35,1.05 V 83.7 q 0,-0.6 -0.35,-1.1 -0.35,-0.5 -0.9,-0.75 l -19.55,-7.9 q -0.35,-0.15 -0.75,-0.15 h -22.7 q -0.85,0 -1.4,0.6 -0.6,0.55 -0.6,1.4 z" />
      </g>
    </g>
    <g
       id="g10595"
       transform="matrix(0.26458333,0,0,0.26458333,185.17555,217.45654)">
      <g
         transform="scale(0.26458333)"
         id="use10593">
        <path
           style="fill:#677c7e;stroke:none"
           inkscape:connector-curvature="0"
           id="path11021"
           d="m 163.2,123.6 v -14.55 q 0,-9.8 -9.9,-9.8 h -52.6 q -9.85,0 -9.85,9.8 v 14.55 q 0,9.85 9.85,9.85 h 52.6 q 9.9,0 9.9,-9.85 m -5.8,0 q 0,4.05 -4.1,4.05 h -52.6 q -4.05,0 -4.05,-4.05 v -14.55 q 0,-4 4.05,-4 h 52.6 q 4.1,0 4.1,4 z" />
        <path
           style="fill:#526364;stroke:none"
           inkscape:connector-curvature="0"
           id="path11023"
           d="m 153.3,127.65 q 4.1,0 4.1,-4.05 v -14.55 q 0,-4 -4.1,-4 h -52.6 q -4.05,0 -4.05,4 v 14.55 q 0,4.05 4.05,4.05 z" />
      </g>
    </g>
    <g
       id="g10599"
       transform="matrix(0.26458333,0,0,0.26458333,185.17555,217.45654)">
      <g
         transform="scale(0.26458333)"
         id="use10597">
        <path
           style="fill:#8eabad;stroke:none"
           inkscape:connector-curvature="0"
           id="path11027"
           d="m 107.7,108.35 q -3.6,0 -6.2,2.55 -2.5,2.5 -2.5,6.15 0,3.55 2.5,6.15 2.6,2.55 6.2,2.55 3.65,0 6.15,-2.55 2.55,-2.6 2.55,-6.15 0,-3.65 -2.55,-6.15 -2.5,-2.55 -6.15,-2.55 m -5.25,8.7 q 0,-2.2 1.55,-3.7 1.55,-1.55 3.65,-1.55 2.2,0 3.75,1.55 1.5,1.5 1.5,3.7 0,2.15 -1.5,3.7 -1.55,1.5 -3.75,1.5 -2.1,0 -3.65,-1.5 -1.55,-1.55 -1.55,-3.7 m 30.75,6.15 q 2.55,-2.6 2.55,-6.15 0,-3.65 -2.55,-6.15 -2.55,-2.55 -6.15,-2.55 -3.65,0 -6.2,2.55 -2.5,2.5 -2.5,6.15 0,3.55 2.5,6.15 2.55,2.55 6.2,2.55 3.6,0 6.15,-2.55 M 127,111.8 q 2.15,0 3.7,1.55 1.5,1.5 1.5,3.7 0,2.15 -1.5,3.7 -1.55,1.5 -3.7,1.5 -2.15,0 -3.7,-1.5 -1.55,-1.55 -1.55,-3.7 0,-2.2 1.55,-3.7 1.55,-1.55 3.7,-1.55 m 25.5,11.4 q 2.55,-2.6 2.55,-6.15 0,-3.65 -2.55,-6.15 -2.5,-2.55 -6.15,-2.55 -3.6,0 -6.15,2.55 -2.55,2.5 -2.55,6.15 0,3.55 2.55,6.15 2.55,2.55 6.15,2.55 3.65,0 6.15,-2.55 m -2.45,-9.85 q 1.5,1.5 1.5,3.7 0,2.15 -1.5,3.7 -1.55,1.5 -3.75,1.5 -2.1,0 -3.65,-1.5 -1.55,-1.55 -1.55,-3.7 0,-2.2 1.55,-3.7 1.55,-1.55 3.65,-1.55 2.2,0 3.75,1.55 z" />
        <path
           style="fill:#809a9c;stroke:none"
           inkscape:connector-curvature="0"
           id="path11029"
           d="m 104,113.35 q -1.55,1.5 -1.55,3.7 0,2.15 1.55,3.7 1.55,1.5 3.65,1.5 2.2,0 3.75,-1.5 1.5,-1.55 1.5,-3.7 0,-2.2 -1.5,-3.7 -1.55,-1.55 -3.75,-1.55 -2.1,0 -3.65,1.55 m 5.15,2.2 q 0.6,0.6 0.6,1.5 0,0.85 -0.6,1.5 -0.6,0.6 -1.5,0.6 -0.85,0 -1.5,-0.6 -0.55,-0.65 -0.55,-1.5 0,-0.9 0.55,-1.5 0.65,-0.6 1.5,-0.6 0.9,0 1.5,0.6 m 21.55,-2.2 q -1.55,-1.55 -3.7,-1.55 -2.15,0 -3.7,1.55 -1.55,1.5 -1.55,3.7 0,2.15 1.55,3.7 1.55,1.5 3.7,1.5 2.15,0 3.7,-1.5 1.5,-1.55 1.5,-3.7 0,-2.2 -1.5,-3.7 m -2.2,2.2 q 0.55,0.6 0.55,1.5 0,0.85 -0.55,1.5 -0.65,0.6 -1.5,0.6 -0.9,0 -1.5,-0.6 -0.6,-0.65 -0.6,-1.5 0,-0.9 0.6,-1.5 0.6,-0.6 1.5,-0.6 0.85,0 1.5,0.6 m 23.05,1.5 q 0,-2.2 -1.5,-3.7 -1.55,-1.55 -3.75,-1.55 -2.1,0 -3.65,1.55 -1.55,1.5 -1.55,3.7 0,2.15 1.55,3.7 1.55,1.5 3.65,1.5 2.2,0 3.75,-1.5 1.5,-1.55 1.5,-3.7 m -3.75,-1.5 q 0.6,0.6 0.6,1.5 0,0.85 -0.6,1.5 -0.6,0.6 -1.5,0.6 -0.85,0 -1.45,-0.6 -0.6,-0.65 -0.6,-1.5 0,-0.9 0.6,-1.5 0.6,-0.6 1.45,-0.6 0.9,0 1.5,0.6 z" />
        <path
           style="fill:#b2d6d9;stroke:none"
           inkscape:connector-curvature="0"
           id="path11031"
           d="m 109.75,117.05 q 0,-0.9 -0.6,-1.5 -0.6,-0.6 -1.5,-0.6 -0.85,0 -1.5,0.6 -0.55,0.6 -0.55,1.5 0,0.85 0.55,1.5 0.65,0.6 1.5,0.6 0.9,0 1.5,-0.6 0.6,-0.65 0.6,-1.5 m 19.3,0 q 0,-0.9 -0.55,-1.5 -0.65,-0.6 -1.5,-0.6 -0.9,0 -1.5,0.6 -0.6,0.6 -0.6,1.5 0,0.85 0.6,1.5 0.6,0.6 1.5,0.6 0.85,0 1.5,-0.6 0.55,-0.65 0.55,-1.5 m 19.35,0 q 0,-0.9 -0.6,-1.5 -0.6,-0.6 -1.5,-0.6 -0.85,0 -1.45,0.6 -0.6,0.6 -0.6,1.5 0,0.85 0.6,1.5 0.6,0.6 1.45,0.6 0.9,0 1.5,-0.6 0.6,-0.65 0.6,-1.5 z" />
      </g>
    </g>
    <g
       id="g10603"
       transform="matrix(0.26458333,0,0,0.26458333,185.17555,217.45654)">
      <g
         transform="scale(0.26458333)"
         id="use10601">
        <path
           style="fill:#2ecc71;stroke:none"
           inkscape:connector-curvature="0"
           id="path11035"
           d="m 99,89.3 q -0.45,0.2 -0.75,0.65 l -9.8,14.35 h 76.6 l -3.6,-14.1 q -0.25,-0.55 -0.75,-0.85 -0.5,-0.3 -1.05,-0.3 H 99.9 q -0.5,0 -0.9,0.25 m 4.6,5.65 h 10.65 q 2,0 2,2 v 3.75 q 0,2 -2,2 H 103.6 q -2,0 -2,-2 v -3.75 q 0,-2 2,-2 m 29.65,3 q 0.5,-0.5 1.2,-0.5 0.7,0 1.2,0.5 0.5,0.5 0.5,1.2 0,0.7 -0.5,1.2 -0.5,0.5 -1.2,0.5 -0.7,0 -1.2,-0.5 -0.5,-0.5 -0.5,-1.2 0,-0.7 0.5,-1.2 m 11.25,0 q 0.5,-0.5 1.2,-0.5 0.7,0 1.2,0.5 0.5,0.5 0.5,1.2 0,0.7 -0.5,1.2 -0.5,0.5 -1.2,0.5 -0.7,0 -1.2,-0.5 -0.5,-0.5 -0.5,-1.2 0,-0.7 0.5,-1.2 m 10.25,0 q 0.5,-0.5 1.2,-0.5 0.7,0 1.2,0.5 0.5,0.5 0.5,1.2 0,0.7 -0.5,1.2 -0.5,0.5 -1.2,0.5 -0.7,0 -1.2,-0.5 -0.5,-0.5 -0.5,-1.2 0,-0.7 0.5,-1.2 m -47.4,0.95 q 0,-0.75 -0.55,-1.3 -0.5,-0.5 -1.25,-0.5 -0.75,0 -1.3,0.5 -0.5,0.55 -0.5,1.3 0,0.75 0.5,1.25 0.55,0.55 1.3,0.55 0.75,0 1.25,-0.55 0.55,-0.5 0.55,-1.25 z" />
        <path
           style="fill:#2bbf6a;stroke:none"
           inkscape:connector-curvature="0"
           id="path11037"
           d="m 155.95,97.45 q -0.7,0 -1.2,0.5 -0.5,0.5 -0.5,1.2 0,0.7 0.5,1.2 0.5,0.5 1.2,0.5 0.7,0 1.2,-0.5 0.5,-0.5 0.5,-1.2 0,-0.7 -0.5,-1.2 -0.5,-0.5 -1.2,-0.5 m -10.25,0 q -0.7,0 -1.2,0.5 -0.5,0.5 -0.5,1.2 0,0.7 0.5,1.2 0.5,0.5 1.2,0.5 0.7,0 1.2,-0.5 0.5,-0.5 0.5,-1.2 0,-0.7 -0.5,-1.2 -0.5,-0.5 -1.2,-0.5 m -11.25,0 q -0.7,0 -1.2,0.5 -0.5,0.5 -0.5,1.2 0,0.7 0.5,1.2 0.5,0.5 1.2,0.5 0.7,0 1.2,-0.5 0.5,-0.5 0.5,-1.2 0,-0.7 -0.5,-1.2 -0.5,-0.5 -1.2,-0.5 m 35.2,9.6 q 0.2,-0.35 0.3,-0.75 h -82.5 v 9.55 q 0,0.85 0.6,1.45 0.55,0.55 1.4,0.55 h 1.5 71.2 q 0.20703,-0.004 0.65,-0.25 0.45,-0.25 0.7,-0.7 z" />
        <path
           style="fill:#8eabad;stroke:none"
           inkscape:connector-curvature="0"
           id="path11039"
           d="M 114.25,94.95 H 103.6 q -2,0 -2,2 v 3.75 q 0,2 2,2 h 10.65 q 2,0 2,-2 v -3.75 q 0,-2 -2,-2 m -7.45,2.65 q 0.55,0.55 0.55,1.3 0,0.75 -0.55,1.25 -0.5,0.55 -1.25,0.55 -0.75,0 -1.3,-0.55 -0.5,-0.5 -0.5,-1.25 0,-0.75 0.5,-1.3 0.55,-0.5 1.3,-0.5 0.75,0 1.25,0.5 z" />
        <path
           style="fill:#000000;fill-opacity:0.10196078;stroke:none"
           inkscape:connector-curvature="0"
           id="path11041"
           d="m 163.3,121.2 v -3.35 h -1.15 -71.2 v 3.35 z" />
        <path
           style="fill:#34ec82;stroke:none"
           inkscape:connector-curvature="0"
           id="path11043"
           d="m 165.05,104.3 h 4.3 l -7.9,-16.1 q -0.25,-0.55 -0.75,-0.85 -0.5,-0.3 -1.05,-0.3 H 99.9 q -0.5,0 -0.9,0.25 -0.45,0.2 -0.75,0.65 L 87.8,103.2 q -0.35,0.5 -0.35,1.1 h 1 l 9.8,-14.35 q 0.3,-0.45 0.75,-0.65 0.4,-0.25 0.9,-0.25 h 59.75 q 0.55,0 1.05,0.3 0.5,0.3 0.75,0.85 z" />
        <path
           style="fill:#31d978;stroke:none"
           inkscape:connector-curvature="0"
           id="path11045"
           d="m 169.75,105.15 -0.4,-0.85 h -4.3 -76.6 -1 v 2 h 82.5 q 0,-0.1 0,-0.2 0.05,-0.5 -0.2,-0.95 z" />
      </g>
    </g>
  </g>
</svg>
